<svg width="105" height="38" viewBox="0 0 105 38" fill="none" xmlns="http://www.w3.org/2000/svg">
<g clip-path="url(#clip0_88_196)">
<path d="M105 0.0642978V36.272C105 36.8909 104.644 37.4695 104.06 37.7107C103.647 37.8875 103.056 38.0161 102.237 37.992C99.9363 37.992 92.1505 38 92.1505 38L82.7685 24.8832V31.4818H59.3866C59.2245 31.1442 58.8762 30.9112 58.4711 30.9112C57.8958 30.9112 57.4421 31.3693 57.4421 31.9319C57.4421 32.4945 57.8958 32.9526 58.4711 32.9526C58.8762 32.9526 59.2245 32.7195 59.3866 32.3739H82.7685V33.5152H54.2095C54.0394 33.0008 53.5451 32.6231 52.9618 32.6231C52.2407 32.6231 51.6412 33.2178 51.6412 33.9412C51.6412 34.6646 52.2407 35.2513 52.9618 35.2513C53.5289 35.2513 54.0069 34.9057 54.1933 34.4074H82.7685V35.9505H56.235C56.0648 35.5406 55.6516 35.2513 55.1736 35.2513C54.5417 35.2513 54.0231 35.7657 54.0231 36.3926C54.0231 37.0195 54.5417 37.5419 55.1736 37.5419C55.6516 37.5419 56.0648 37.2525 56.235 36.8426H82.7685V38H40.5741C39.3264 38 38.2245 37.2043 37.8437 36.0228L31.2083 15.5199L23.6736 36.4167C23.3333 37.3651 22.4259 38 21.4051 38H15.4826C14.4618 38 13.5544 37.3651 13.2141 36.4247L0 0.072335H9.13079C9.13079 0.072335 10.9699 0.136633 11.9988 3.48816C12.8333 6.39763 18.1887 23.4285 18.1887 23.4285L25.7963 1.67978C26.1285 0.715313 27.0521 0.0642978 28.081 0.0642978H32.9178C33.9549 0.0642978 34.8785 0.72335 35.2106 1.69585L43.3854 23.3642L51.6412 0L63.5914 0.0241117H66.7755L66.7836 0.0321489L77.7697 0.0562606L94.8727 26.2898V1.94501C94.8727 0.908207 95.7234 0.0642978 96.7685 0.0642978H105Z" fill="#FF725E"/>
<path d="M52.97 34.4958C53.2608 34.4958 53.4966 34.2619 53.4966 33.9733C53.4966 33.6848 53.2608 33.4509 52.97 33.4509C52.6791 33.4509 52.4434 33.6848 52.4434 33.9733C52.4434 34.2619 52.6791 34.4958 52.97 34.4958Z" fill="white"/>
<path d="M58.4793 32.4142C58.7254 32.4142 58.9249 32.2162 58.9249 31.9721C58.9249 31.728 58.7254 31.5301 58.4793 31.5301C58.2332 31.5301 58.0337 31.728 58.0337 31.9721C58.0337 32.2162 58.2332 32.4142 58.4793 32.4142Z" fill="white"/>
<path d="M55.1655 36.915C55.4295 36.915 55.6435 36.7027 55.6435 36.4408C55.6435 36.1789 55.4295 35.9666 55.1655 35.9666C54.9015 35.9666 54.6875 36.1789 54.6875 36.4408C54.6875 36.7027 54.9015 36.915 55.1655 36.915Z" fill="white"/>
<path d="M58.1389 30.5817H82.7685V31.4818H59.3866C59.2246 31.1443 58.8762 30.9112 58.4711 30.9112C57.8959 30.9112 57.4422 31.3693 57.4422 31.9319C57.4422 32.4945 57.8959 32.9526 58.4711 32.9526C58.8762 32.9526 59.2246 32.7196 59.3866 32.374H82.7685V33.5152H54.2095C54.0394 33.0009 53.5452 32.6231 52.9618 32.6231C52.2408 32.6231 51.6412 33.2179 51.6412 33.9412C51.6412 34.6646 52.2408 35.2513 52.9618 35.2513C53.529 35.2513 54.007 34.9057 54.1933 34.4074H82.7685V35.9505H56.235C56.0648 35.5406 55.6516 35.2513 55.1736 35.2513C54.5417 35.2513 54.0232 35.7657 54.0232 36.3926C54.0232 37.0195 54.5417 37.5419 55.1736 37.5419C55.6516 37.5419 56.0648 37.2526 56.235 36.8427H82.7685V38H48.5058V27.7365C48.5787 27.5436 48.6678 27.3507 48.757 27.1578C51.5602 21.363 59.0382 19.1849 64.7986 17.7382C66.9537 17.1997 69.4248 17.2318 71.3206 15.9378C73.5486 14.4268 73.5162 11.3004 71.9121 9.33123C69.3195 6.15653 63.8669 6.12438 60.4803 7.90061C58.4225 8.98563 57.1829 10.794 55.8704 12.6265C55.8056 12.7229 55.7327 12.8194 55.6435 12.8837C55.6273 12.8998 55.603 12.9078 55.5868 12.9239C55.4572 12.9962 55.3033 12.9962 55.1574 13.0042C54.4364 13.0364 53.7234 13.0605 53.0023 13.0927C50.831 13.173 48.125 13.0605 48.3114 10.2636C48.4329 8.5034 49.4051 6.70306 50.4422 5.31262C51.7466 3.53639 53.61 2.05754 55.7327 1.37438C58.2766 0.554583 60.934 0.144685 63.5915 0.0321637C64.6528 -0.00802239 65.7141 -0.00802238 66.7755 0.040201H66.7836C71.8716 0.265243 77.8345 0.843923 80.8646 5.47337C82.0556 7.28174 82.6794 9.42768 82.8415 11.5817C83.125 15.335 81.8287 18.791 78.8472 21.154C73.9375 25.044 67.4479 24.8993 61.7361 26.78C60.3912 27.2221 58.0579 28.1383 57.9769 29.8342C57.9769 29.8985 58.0012 30.5817 58.1389 30.5817Z" fill="white"/>
</g>
<defs>
<clipPath id="clip0_88_196">
<rect width="105" height="38" fill="white"/>
</clipPath>
</defs>
</svg>
